<svg width="1280" height="360" viewBox="0 0 1280 360" fill="none" xmlns="http://www.w3.org/2000/svg">
  <defs>
    <linearGradient id="bg" x1="60" y1="18" x2="1206" y2="332" gradientUnits="userSpaceOnUse">
      <stop stop-color="#18110C"/>
      <stop offset="0.45" stop-color="#2B1C14"/>
      <stop offset="1" stop-color="#6B4128"/>
    </linearGradient>
    <linearGradient id="glow" x1="815" y1="82" x2="1120" y2="250" gradientUnits="userSpaceOnUse">
      <stop stop-color="#F6D7B8"/>
      <stop offset="1" stop-color="#D97745"/>
    </linearGradient>
    <filter id="soft" x="0" y="0" width="1280" height="360" filterUnits="userSpaceOnUse" color-interpolation-filters="sRGB">
      <feGaussianBlur stdDeviation="30"/>
    </filter>
    <style>
      .title { font: 700 50px Inter, Segoe UI, Arial, sans-serif; fill: #FFF7ED; }
      .subtitle { font: 600 22px Inter, Segoe UI, Arial, sans-serif; fill: #F6D7B8; }
      .body { font: 500 18px Inter, Segoe UI, Arial, sans-serif; fill: #E7D2C0; }
      .chip { font: 700 13px Inter, Segoe UI, Arial, sans-serif; fill: #2B1C14; }
    </style>
  </defs>
  <rect width="1280" height="360" rx="32" fill="url(#bg)"/>
  <g opacity="0.14" filter="url(#soft)">
    <circle cx="1078" cy="80" r="110" fill="#E89B63"/>
    <circle cx="962" cy="270" r="150" fill="#F6D7B8"/>
    <circle cx="210" cy="314" r="130" fill="#7C4A2D"/>
  </g>
  <g>
    <rect x="74" y="64" width="214" height="38" rx="19" fill="#F6D7B8"/>
    <text x="98" y="89" class="chip">PHASE 0 COMPLETE • PHASE 1-READY</text>

    <text x="74" y="154" class="title">onemancompany</text>
    <text x="74" y="192" class="subtitle">Company kernel for a one-person AI-agent operating company</text>
    <text x="74" y="240" class="body">One owner. Many agents. One kernel. One evidence standard.</text>
    <text x="74" y="270" class="body">First domain: Investment War Room — structured research, debate, synthesis, and journaled decisions.</text>
  </g>
  <g>
    <rect x="800" y="58" width="404" height="244" rx="28" fill="#FFF7ED" fill-opacity="0.08" stroke="#F6D7B8" stroke-opacity="0.18"/>
    <circle cx="1002" cy="176" r="62" stroke="url(#glow)" stroke-width="12"/>
    <circle cx="1002" cy="176" r="15" fill="#FFF7ED"/>
    <path d="M1002 132V158" stroke="#FFF7ED" stroke-width="8" stroke-linecap="round"/>
    <path d="M990 186L958 202" stroke="#FFF7ED" stroke-width="8" stroke-linecap="round"/>
    <path d="M1014 186L1046 202" stroke="#FFF7ED" stroke-width="8" stroke-linecap="round"/>
    <circle cx="1002" cy="118" r="12" fill="#E89B63"/>
    <circle cx="1057" cy="208" r="12" fill="#F6D7B8"/>
    <circle cx="947" cy="208" r="12" fill="#C98C5A"/>
    <rect x="838" y="86" width="112" height="34" rx="17" fill="#F6D7B8"/>
    <text x="861" y="108" class="chip">OWNER</text>
    <rect x="1064" y="86" width="104" height="34" rx="17" fill="#F6D7B8"/>
    <text x="1081" y="108" class="chip">AGENTS</text>
    <rect x="928" y="246" width="148" height="34" rx="17" fill="#F6D7B8"/>
    <text x="952" y="268" class="chip">EVIDENCE + JOURNAL</text>
  </g>
</svg>
